<svg xmlns="http://www.w3.org/2000/svg" xmlns:xlink="http://www.w3.org/1999/xlink" version="1.1" data-diagram-type="CLASS" style="width:440px;height:859px;background:#1E1E1E;" width="440px" height="859px" viewBox="0 0 440 859" zoomAndPan="magnify" preserveAspectRatio="none" contentStyleType="text/css"><?plantuml 1.2026.8?><defs/><g font-family="sans-serif" lengthAdjust="spacing"><rect x="0" y="0" width="440" height="859" fill="#1E1E1E" style="stroke:none;"/><g class="title" data-source-line="1"><text x="101.952" y="24.966" fill="#F0F0F0" font-size="14" textLength="230.047" font-weight="700">Adventure - Class Diagram (dark)</text></g><!--class Room--><g class="entity" data-qualified-name="Room" id="ent0001" data-source-line="16"><rect x="7" y="472.688" width="292.601" height="372.155" fill="#2B2B2B" style="stroke:#8A8A8A;stroke-width:0.5;" rx="2.5" ry="2.5"/><ellipse cx="129.682" cy="488.688" rx="11" ry="11" fill="#ADD1B2" style="stroke:#181818;stroke-width:1;"/><path d="M129.15,495.61 Q127.4,495.61 126.26,494.875 Q125.135,494.125 124.572,492.782 Q124.025,491.422 124.025,489.625 Q124.025,487.594 124.682,486.141 Q125.338,484.688 126.619,483.907 Q127.9,483.125 129.775,483.125 Q130.666,483.125 131.338,483.313 Q132.01,483.485 132.697,483.829 L131.885,485.844 Q131.26,485.532 130.713,485.407 Q130.182,485.282 129.697,485.282 Q128.525,485.282 127.822,485.813 Q127.119,486.344 126.822,487.297 Q126.525,488.25 126.525,489.516 Q126.525,491.532 127.244,492.5 Q127.963,493.454 129.557,493.454 Q130.15,493.454 130.775,493.297 Q131.4,493.141 132.228,492.766 L132.228,494.985 Q131.494,495.297 130.697,495.454 Q129.916,495.61 129.15,495.61 Z " fill="#F0F0F0"/><text x="150.182" y="494.12" fill="#F0F0F0" font-size="14" textLength="38.738">Room</text><line x1="8" y1="504.688" x2="298.601" y2="504.688" style="stroke:#8A8A8A;stroke-width:0.5;"/><g data-visibility-modifier="PRIVATE_FIELD"><rect x="15" y="516.722" width="6" height="6" fill="none" style="stroke:#C82930;stroke-width:1;"/></g><text x="27" y="523.654" fill="#F0F0F0" font-size="14" textLength="87.92">name : String</text><g data-visibility-modifier="PRIVATE_FIELD"><rect x="15" y="535.79" width="6" height="6" fill="none" style="stroke:#C82930;stroke-width:1;"/></g><text x="27" y="542.722" fill="#F0F0F0" font-size="14" textLength="124.152">description : String</text><g data-visibility-modifier="PRIVATE_FIELD"><rect x="15" y="554.858" width="6" height="6" fill="none" style="stroke:#C82930;stroke-width:1;"/></g><text x="27" y="561.79" fill="#F0F0F0" font-size="14" textLength="86.38">north : Room</text><g data-visibility-modifier="PRIVATE_FIELD"><rect x="15" y="573.926" width="6" height="6" fill="none" style="stroke:#C82930;stroke-width:1;"/></g><text x="27" y="580.858" fill="#F0F0F0" font-size="14" textLength="77.28">east : Room</text><g data-visibility-modifier="PRIVATE_FIELD"><rect x="15" y="592.994" width="6" height="6" fill="none" style="stroke:#C82930;stroke-width:1;"/></g><text x="27" y="599.926" fill="#F0F0F0" font-size="14" textLength="87.304">south : Room</text><g data-visibility-modifier="PRIVATE_FIELD"><rect x="15" y="612.061" width="6" height="6" fill="none" style="stroke:#C82930;stroke-width:1;"/></g><text x="27" y="618.993" fill="#F0F0F0" font-size="14" textLength="80.43">west : Room</text><line x1="8" y1="627.095" x2="298.601" y2="627.095" style="stroke:#8A8A8A;stroke-width:0.5;"/><g data-visibility-modifier="PUBLIC_METHOD"><ellipse cx="18" cy="642.129" rx="3" ry="3" fill="#84BE84" style="stroke:#038048;stroke-width:1;"/></g><text x="27" y="646.061" fill="#F0F0F0" font-size="14" textLength="266.601">Room(name : String, description : String)</text><g data-visibility-modifier="PUBLIC_METHOD"><ellipse cx="18" cy="661.197" rx="3" ry="3" fill="#84BE84" style="stroke:#038048;stroke-width:1;"/></g><text x="27" y="665.129" fill="#F0F0F0" font-size="14" textLength="118.328">getNorth() : Room</text><g data-visibility-modifier="PUBLIC_METHOD"><ellipse cx="18" cy="680.265" rx="3" ry="3" fill="#84BE84" style="stroke:#038048;stroke-width:1;"/></g><text x="27" y="684.197" fill="#F0F0F0" font-size="14" textLength="107.128">getEast() : Room</text><g data-visibility-modifier="PUBLIC_METHOD"><ellipse cx="18" cy="699.333" rx="3" ry="3" fill="#84BE84" style="stroke:#038048;stroke-width:1;"/></g><text x="27" y="703.265" fill="#F0F0F0" font-size="14" textLength="118.244">getSouth() : Room</text><g data-visibility-modifier="PUBLIC_METHOD"><ellipse cx="18" cy="718.401" rx="3" ry="3" fill="#84BE84" style="stroke:#038048;stroke-width:1;"/></g><text x="27" y="722.333" fill="#F0F0F0" font-size="14" textLength="112.406">getWest() : Room</text><g data-visibility-modifier="PUBLIC_METHOD"><ellipse cx="18" cy="737.469" rx="3" ry="3" fill="#84BE84" style="stroke:#038048;stroke-width:1;"/></g><text x="27" y="741.401" fill="#F0F0F0" font-size="14" textLength="191.869">setNorth(north : Room) : void</text><g data-visibility-modifier="PUBLIC_METHOD"><ellipse cx="18" cy="756.537" rx="3" ry="3" fill="#84BE84" style="stroke:#038048;stroke-width:1;"/></g><text x="27" y="760.469" fill="#F0F0F0" font-size="14" textLength="171.569">setEast(east : Room) : void</text><g data-visibility-modifier="PUBLIC_METHOD"><ellipse cx="18" cy="775.605" rx="3" ry="3" fill="#84BE84" style="stroke:#038048;stroke-width:1;"/></g><text x="27" y="779.537" fill="#F0F0F0" font-size="14" textLength="192.709">setSouth(south : Room) : void</text><g data-visibility-modifier="PUBLIC_METHOD"><ellipse cx="18" cy="794.673" rx="3" ry="3" fill="#84BE84" style="stroke:#038048;stroke-width:1;"/></g><text x="27" y="798.605" fill="#F0F0F0" font-size="14" textLength="179.997">setWest(west : Room) : void</text><g data-visibility-modifier="PUBLIC_METHOD"><ellipse cx="18" cy="813.741" rx="3" ry="3" fill="#84BE84" style="stroke:#038048;stroke-width:1;"/></g><text x="27" y="817.673" fill="#F0F0F0" font-size="14" textLength="119.868">getName() : String</text><g data-visibility-modifier="PUBLIC_METHOD"><ellipse cx="18" cy="832.809" rx="3" ry="3" fill="#84BE84" style="stroke:#038048;stroke-width:1;"/></g><text x="27" y="836.741" fill="#F0F0F0" font-size="14" textLength="155.721">getDescription() : String</text></g><!--class Adventure--><g class="entity" data-qualified-name="Adventure" id="ent0002" data-source-line="36"><rect x="173.4" y="193.138" width="195.791" height="200.543" fill="#2B2B2B" style="stroke:#8A8A8A;stroke-width:0.5;" rx="2.5" ry="2.5"/><ellipse cx="232.746" cy="209.138" rx="11" ry="11" fill="#ADD1B2" style="stroke:#181818;stroke-width:1;"/><path d="M232.215,216.06 Q230.465,216.06 229.324,215.325 Q228.199,214.575 227.636,213.232 Q227.09,211.872 227.09,210.075 Q227.09,208.044 227.746,206.591 Q228.402,205.138 229.683,204.357 Q230.965,203.575 232.84,203.575 Q233.73,203.575 234.402,203.763 Q235.074,203.935 235.761,204.279 L234.949,206.294 Q234.324,205.982 233.777,205.857 Q233.246,205.732 232.761,205.732 Q231.59,205.732 230.886,206.263 Q230.183,206.794 229.886,207.747 Q229.59,208.7 229.59,209.966 Q229.59,211.982 230.308,212.95 Q231.027,213.904 232.621,213.904 Q233.215,213.904 233.84,213.747 Q234.465,213.591 235.293,213.216 L235.293,215.435 Q234.558,215.747 233.761,215.904 Q232.98,216.06 232.215,216.06 Z " fill="#F0F0F0"/><text x="253.246" y="214.57" fill="#F0F0F0" font-size="14" textLength="68.6">Adventure</text><line x1="174.4" y1="225.138" x2="368.191" y2="225.138" style="stroke:#8A8A8A;stroke-width:0.5;"/><g data-visibility-modifier="PRIVATE_FIELD"><rect x="181.4" y="237.172" width="6" height="6" fill="none" style="stroke:#C82930;stroke-width:1;"/></g><text x="193.4" y="244.104" fill="#F0F0F0" font-size="14" textLength="137.045">currentRoom : Room</text><line x1="174.4" y1="252.206" x2="368.191" y2="252.206" style="stroke:#8A8A8A;stroke-width:0.5;"/><g data-visibility-modifier="PUBLIC_METHOD"><ellipse cx="184.4" cy="267.24" rx="3" ry="3" fill="#84BE84" style="stroke:#038048;stroke-width:1;"/></g><text x="193.4" y="271.172" fill="#F0F0F0" font-size="14" textLength="77">Adventure()</text><g data-visibility-modifier="PUBLIC_METHOD"><ellipse cx="184.4" cy="286.308" rx="3" ry="3" fill="#84BE84" style="stroke:#038048;stroke-width:1;"/></g><text x="193.4" y="290.24" fill="#F0F0F0" font-size="14" textLength="86.856">look() : String</text><g data-visibility-modifier="PUBLIC_METHOD"><ellipse cx="184.4" cy="305.376" rx="3" ry="3" fill="#84BE84" style="stroke:#038048;stroke-width:1;"/></g><text x="193.4" y="309.308" fill="#F0F0F0" font-size="14" textLength="169.791">getCurrentRoom() : String</text><g data-visibility-modifier="PUBLIC_METHOD"><ellipse cx="184.4" cy="324.444" rx="3" ry="3" fill="#84BE84" style="stroke:#038048;stroke-width:1;"/></g><text x="193.4" y="328.376" fill="#F0F0F0" font-size="14" textLength="133.335">moveNorth() : Room</text><g data-visibility-modifier="PUBLIC_METHOD"><ellipse cx="184.4" cy="343.511" rx="3" ry="3" fill="#84BE84" style="stroke:#038048;stroke-width:1;"/></g><text x="193.4" y="347.443" fill="#F0F0F0" font-size="14" textLength="122.136">moveEast() : Room</text><g data-visibility-modifier="PUBLIC_METHOD"><ellipse cx="184.4" cy="362.579" rx="3" ry="3" fill="#84BE84" style="stroke:#038048;stroke-width:1;"/></g><text x="193.4" y="366.511" fill="#F0F0F0" font-size="14" textLength="133.251">moveSouth() : Room</text><g data-visibility-modifier="PUBLIC_METHOD"><ellipse cx="184.4" cy="381.647" rx="3" ry="3" fill="#84BE84" style="stroke:#038048;stroke-width:1;"/></g><text x="193.4" y="385.579" fill="#F0F0F0" font-size="14" textLength="127.413">moveWest() : Room</text></g><!--class UserInterface--><g class="entity" data-qualified-name="UserInterface" id="ent0003" data-source-line="47"><rect x="26.78" y="47.068" width="195.035" height="67.068" fill="#2B2B2B" style="stroke:#8A8A8A;stroke-width:0.5;" rx="2.5" ry="2.5"/><ellipse cx="75.031" cy="63.068" rx="11" ry="11" fill="#ADD1B2" style="stroke:#181818;stroke-width:1;"/><path d="M74.5,69.99 Q72.75,69.99 71.609,69.255 Q70.484,68.505 69.921,67.162 Q69.375,65.802 69.375,64.005 Q69.375,61.974 70.031,60.521 Q70.687,59.068 71.968,58.287 Q73.25,57.505 75.125,57.505 Q76.015,57.505 76.687,57.693 Q77.359,57.865 78.046,58.209 L77.234,60.224 Q76.609,59.912 76.062,59.787 Q75.531,59.662 75.046,59.662 Q73.875,59.662 73.171,60.193 Q72.468,60.724 72.171,61.677 Q71.875,62.63 71.875,63.896 Q71.875,65.912 72.593,66.88 Q73.312,67.834 74.906,67.834 Q75.5,67.834 76.125,67.677 Q76.75,67.521 77.578,67.146 L77.578,69.365 Q76.843,69.677 76.046,69.834 Q75.265,69.99 74.5,69.99 Z " fill="#F0F0F0"/><text x="95.531" y="68.5" fill="#F0F0F0" font-size="14" textLength="90.034">UserInterface</text><line x1="27.78" y1="79.068" x2="220.815" y2="79.068" style="stroke:#8A8A8A;stroke-width:0.5;"/><line x1="27.78" y1="87.068" x2="220.815" y2="87.068" style="stroke:#8A8A8A;stroke-width:0.5;"/><g data-visibility-modifier="PUBLIC_METHOD"><ellipse cx="37.78" cy="102.102" rx="3" ry="3" fill="#84BE84" style="stroke:#038048;stroke-width:1;"/></g><text x="46.78" y="106.034" fill="#F0F0F0" font-size="14" textLength="169.035">main(args : String[]) : void</text></g><!--reverse link Adventure to Room--><g class="link" data-entity-1="ent0002" data-entity-2="ent0001" id="lnk4" data-source-line="51" data-link-type="aggregation"><path d="M235.195,405.592 C227.285,429.962 222.26,445.408 213.51,472.378" style="stroke:#E0E0E0;stroke-width:1;" fill="none" id="Adventure-backto-Room" codeLine="51"/><polygon points="238.9,394.178,233.243,398.65,235.195,405.592,240.852,401.12,238.9,394.178" fill="none" style="stroke:#E0E0E0;stroke-width:1;stroke-linejoin:miter;stroke-miterlimit:10;"/><text x="227.34" y="438.585" fill="#F0F0F0" font-size="13" textLength="81.042">currentRoom</text><text x="229.503" y="415.44" fill="#F0F0F0" font-size="13">1</text><text x="208.912" y="461.068" fill="#F0F0F0" font-size="13">1</text></g><!--reverse link Room to Room--><g class="link" data-entity-1="ent0001" data-entity-2="ent0001" id="lnk5" data-source-line="52" data-link-type="aggregation"><path d="M311.349,624.205 C332.149,630.345 334.6,639.598 334.6,658.758 C334.6,677.928 320.64,690.578 299.84,696.718" style="stroke:#E0E0E0;stroke-width:1;" fill="none" id="Room-backto-Room" codeLine="52"/><polygon points="299.84,620.808,304.462,626.343,311.349,624.205,306.727,618.67,299.84,620.808" fill="none" style="stroke:#E0E0E0;stroke-width:1;stroke-linejoin:miter;stroke-miterlimit:10;"/><text x="340.6" y="655.155" fill="#F0F0F0" font-size="13" textLength="79.352">north / east /</text><text x="342.816" y="672.861" fill="#F0F0F0" font-size="13" textLength="74.919">south / west</text><text x="307.467" y="615.472" fill="#F0F0F0" font-size="13" textLength="21.84">0..4</text><text x="307.467" y="695.059" fill="#F0F0F0" font-size="13" textLength="21.84">0..4</text></g><!--link UserInterface to Adventure--><g class="link" data-entity-1="ent0003" data-entity-2="ent0002" id="lnk6" data-source-line="53" data-link-type="dependency"><path d="M147.27,114.548 C162.05,135.738 179.251,160.396 198.921,188.616" style="stroke:#E0E0E0;stroke-width:1;stroke-dasharray:7,7;" fill="none" id="UserInterface-to-Adventure" codeLine="53"/><polygon points="201.78,192.718,199.915,183.047,198.921,188.616,193.352,187.622,201.78,192.718" fill="#E0E0E0" style="stroke:#E0E0E0;stroke-width:1;stroke-linejoin:miter;stroke-miterlimit:10;"/><text x="181.31" y="159.035" fill="#F0F0F0" font-size="13" textLength="41.054">«uses»</text></g><!--link UserInterface to Room--><g class="link" data-entity-1="ent0003" data-entity-2="ent0001" id="lnk7" data-source-line="54" data-link-type="dependency"><path d="M120.23,114.238 C117.67,136.448 114.61,166.518 113.3,193.138 C108.92,282.158 106.61,304.808 113.3,393.688 C115.22,419.228 117.531,441.09 120.981,467.45" style="stroke:#E0E0E0;stroke-width:1;stroke-dasharray:7,7;" fill="none" id="UserInterface-to-Room" codeLine="54"/><polygon points="121.63,472.408,124.428,462.965,120.981,467.45,116.496,464.003,121.63,472.408" fill="#E0E0E0" style="stroke:#E0E0E0;stroke-width:1;stroke-linejoin:miter;stroke-miterlimit:10;"/><text x="114.3" y="298.805" fill="#F0F0F0" font-size="13" textLength="41.054">«uses»</text></g><?plantuml-src TLFBJiCm4BpdAwnoIGLzW3XK25KgRP6uSA0W3i3194k8cdghjLE44F-ExJY9qvZi8T7CU1-pZifL0MoH7a2eae2DsBBWKh9LpZFYEnQddBR3A9BRNEovGNuYffztdcmpmbAaIooGsCdvseJb5aJuvU3rr8I5RUARutCNDoOy0L8AvCZPmaHBtg9GZhgTccYfXLAKlvSAFCroPYAWkKjG_9Ddeu00rVV-dqIFnh1m7oluu6MX-kHl52NMrGV4si0H4tm7x8fjT4yYSrWACg5yht8KnvH0KfyQD3aS15ogBYAnF1PzGLTqQZ_ZJlMpOE6XqsUWxatnUDZDe_6rxY00RqmR0VmP-d9PP_S7D9e3vcchiPMyWVkAggZlG5zZ6_0SELAOIRKljaNFV4kiMeTyljbj-m_L2qvA8WtPfNT6RgHnRN61k0rMNROv-lmE3n3SZ252gp5uS3U6w2wdcUj90jq9_LTyyAIUJH_WkOWvPRBfwUMjCLEVRTqOd0yOZaRsxQpmZ8aiD9YEnvTELdqwPNKd9jLDdxoAQhiJUwcZRcVZyTpRmHMxlYuboFay87F96yKV?></g></svg>