<svg xmlns="http://www.w3.org/2000/svg" xmlns:xlink="http://www.w3.org/1999/xlink" version="1.1" data-diagram-type="CLASS" style="width:406px;height:822px;background:#1E1E1E;" width="406px" height="822px" viewBox="0 0 406 822" zoomAndPan="magnify" preserveAspectRatio="none" contentStyleType="text/css"><?plantuml 1.2026.8?><defs/><g font-family="sans-serif" lengthAdjust="spacing"><rect x="0" y="0" width="406" height="822" fill="#1E1E1E" style="stroke:none;"/><g class="title" data-source-line="1"><text x="84.652" y="24.966" fill="#F0F0F0" font-size="14" textLength="230.047" font-weight="700">Adventure - Class Diagram (dark)</text></g><!--class Room--><g class="entity" data-qualified-name="Room" id="ent0001" data-source-line="16"><rect x="6" y="434.068" width="292.601" height="372.155" fill="#2B2B2B" style="stroke:#8A8A8A;stroke-width:0.5;" rx="2.5" ry="2.5"/><ellipse cx="128.682" cy="450.068" rx="11" ry="11" fill="#ADD1B2" style="stroke:#181818;stroke-width:1;"/><path d="M128.15,456.99 Q126.4,456.99 125.26,456.255 Q124.135,455.505 123.572,454.162 Q123.025,452.802 123.025,451.005 Q123.025,448.974 123.682,447.521 Q124.338,446.068 125.619,445.287 Q126.9,444.505 128.775,444.505 Q129.666,444.505 130.338,444.693 Q131.01,444.865 131.697,445.209 L130.885,447.224 Q130.26,446.912 129.713,446.787 Q129.182,446.662 128.697,446.662 Q127.525,446.662 126.822,447.193 Q126.119,447.724 125.822,448.677 Q125.525,449.63 125.525,450.896 Q125.525,452.912 126.244,453.88 Q126.963,454.834 128.557,454.834 Q129.15,454.834 129.775,454.677 Q130.4,454.521 131.228,454.146 L131.228,456.365 Q130.494,456.677 129.697,456.834 Q128.916,456.99 128.15,456.99 Z " fill="#F0F0F0"/><text x="149.182" y="455.5" fill="#F0F0F0" font-size="14" textLength="38.738">Room</text><line x1="7" y1="466.068" x2="297.601" y2="466.068" style="stroke:#8A8A8A;stroke-width:0.5;"/><g data-visibility-modifier="PRIVATE_FIELD"><rect x="14" y="478.102" width="6" height="6" fill="none" style="stroke:#C82930;stroke-width:1;"/></g><text x="26" y="485.034" fill="#F0F0F0" font-size="14" textLength="87.92">name : String</text><g data-visibility-modifier="PRIVATE_FIELD"><rect x="14" y="497.17" width="6" height="6" fill="none" style="stroke:#C82930;stroke-width:1;"/></g><text x="26" y="504.102" fill="#F0F0F0" font-size="14" textLength="124.152">description : String</text><g data-visibility-modifier="PRIVATE_FIELD"><rect x="14" y="516.238" width="6" height="6" fill="none" style="stroke:#C82930;stroke-width:1;"/></g><text x="26" y="523.17" fill="#F0F0F0" font-size="14" textLength="86.38">north : Room</text><g data-visibility-modifier="PRIVATE_FIELD"><rect x="14" y="535.306" width="6" height="6" fill="none" style="stroke:#C82930;stroke-width:1;"/></g><text x="26" y="542.238" fill="#F0F0F0" font-size="14" textLength="77.28">east : Room</text><g data-visibility-modifier="PRIVATE_FIELD"><rect x="14" y="554.374" width="6" height="6" fill="none" style="stroke:#C82930;stroke-width:1;"/></g><text x="26" y="561.306" fill="#F0F0F0" font-size="14" textLength="87.304">south : Room</text><g data-visibility-modifier="PRIVATE_FIELD"><rect x="14" y="573.441" width="6" height="6" fill="none" style="stroke:#C82930;stroke-width:1;"/></g><text x="26" y="580.373" fill="#F0F0F0" font-size="14" textLength="80.43">west : Room</text><line x1="7" y1="588.475" x2="297.601" y2="588.475" style="stroke:#8A8A8A;stroke-width:0.5;"/><g data-visibility-modifier="PUBLIC_METHOD"><ellipse cx="17" cy="603.509" rx="3" ry="3" fill="#84BE84" style="stroke:#038048;stroke-width:1;"/></g><text x="26" y="607.441" fill="#F0F0F0" font-size="14" textLength="266.601">Room(name : String, description : String)</text><g data-visibility-modifier="PUBLIC_METHOD"><ellipse cx="17" cy="622.577" rx="3" ry="3" fill="#84BE84" style="stroke:#038048;stroke-width:1;"/></g><text x="26" y="626.509" fill="#F0F0F0" font-size="14" textLength="118.328">getNorth() : Room</text><g data-visibility-modifier="PUBLIC_METHOD"><ellipse cx="17" cy="641.645" rx="3" ry="3" fill="#84BE84" style="stroke:#038048;stroke-width:1;"/></g><text x="26" y="645.577" fill="#F0F0F0" font-size="14" textLength="107.128">getEast() : Room</text><g data-visibility-modifier="PUBLIC_METHOD"><ellipse cx="17" cy="660.713" rx="3" ry="3" fill="#84BE84" style="stroke:#038048;stroke-width:1;"/></g><text x="26" y="664.645" fill="#F0F0F0" font-size="14" textLength="118.244">getSouth() : Room</text><g data-visibility-modifier="PUBLIC_METHOD"><ellipse cx="17" cy="679.781" rx="3" ry="3" fill="#84BE84" style="stroke:#038048;stroke-width:1;"/></g><text x="26" y="683.713" fill="#F0F0F0" font-size="14" textLength="112.406">getWest() : Room</text><g data-visibility-modifier="PUBLIC_METHOD"><ellipse cx="17" cy="698.849" rx="3" ry="3" fill="#84BE84" style="stroke:#038048;stroke-width:1;"/></g><text x="26" y="702.781" fill="#F0F0F0" font-size="14" textLength="191.869">setNorth(north : Room) : void</text><g data-visibility-modifier="PUBLIC_METHOD"><ellipse cx="17" cy="717.917" rx="3" ry="3" fill="#84BE84" style="stroke:#038048;stroke-width:1;"/></g><text x="26" y="721.849" fill="#F0F0F0" font-size="14" textLength="171.569">setEast(east : Room) : void</text><g data-visibility-modifier="PUBLIC_METHOD"><ellipse cx="17" cy="736.985" rx="3" ry="3" fill="#84BE84" style="stroke:#038048;stroke-width:1;"/></g><text x="26" y="740.917" fill="#F0F0F0" font-size="14" textLength="192.709">setSouth(south : Room) : void</text><g data-visibility-modifier="PUBLIC_METHOD"><ellipse cx="17" cy="756.053" rx="3" ry="3" fill="#84BE84" style="stroke:#038048;stroke-width:1;"/></g><text x="26" y="759.985" fill="#F0F0F0" font-size="14" textLength="179.997">setWest(west : Room) : void</text><g data-visibility-modifier="PUBLIC_METHOD"><ellipse cx="17" cy="775.121" rx="3" ry="3" fill="#84BE84" style="stroke:#038048;stroke-width:1;"/></g><text x="26" y="779.053" fill="#F0F0F0" font-size="14" textLength="119.868">getName() : String</text><g data-visibility-modifier="PUBLIC_METHOD"><ellipse cx="17" cy="794.189" rx="3" ry="3" fill="#84BE84" style="stroke:#038048;stroke-width:1;"/></g><text x="26" y="798.121" fill="#F0F0F0" font-size="14" textLength="155.721">getDescription() : String</text></g><!--class Adventure--><g class="entity" data-qualified-name="Adventure" id="ent0002" data-source-line="36"><rect x="167.5" y="176.068" width="195.791" height="200.543" fill="#2B2B2B" style="stroke:#8A8A8A;stroke-width:0.5;" rx="2.5" ry="2.5"/><ellipse cx="226.846" cy="192.068" rx="11" ry="11" fill="#ADD1B2" style="stroke:#181818;stroke-width:1;"/><path d="M226.315,198.99 Q224.565,198.99 223.424,198.255 Q222.299,197.505 221.736,196.162 Q221.19,194.802 221.19,193.005 Q221.19,190.974 221.846,189.521 Q222.502,188.068 223.783,187.287 Q225.065,186.505 226.94,186.505 Q227.83,186.505 228.502,186.693 Q229.174,186.865 229.861,187.209 L229.049,189.224 Q228.424,188.912 227.877,188.787 Q227.346,188.662 226.861,188.662 Q225.69,188.662 224.986,189.193 Q224.283,189.724 223.986,190.677 Q223.69,191.63 223.69,192.896 Q223.69,194.912 224.408,195.88 Q225.127,196.834 226.721,196.834 Q227.315,196.834 227.94,196.677 Q228.565,196.521 229.393,196.146 L229.393,198.365 Q228.658,198.677 227.861,198.834 Q227.08,198.99 226.315,198.99 Z " fill="#F0F0F0"/><text x="247.346" y="197.5" fill="#F0F0F0" font-size="14" textLength="68.6">Adventure</text><line x1="168.5" y1="208.068" x2="362.291" y2="208.068" style="stroke:#8A8A8A;stroke-width:0.5;"/><g data-visibility-modifier="PRIVATE_FIELD"><rect x="175.5" y="220.102" width="6" height="6" fill="none" style="stroke:#C82930;stroke-width:1;"/></g><text x="187.5" y="227.034" fill="#F0F0F0" font-size="14" textLength="137.045">currentRoom : Room</text><line x1="168.5" y1="235.136" x2="362.291" y2="235.136" style="stroke:#8A8A8A;stroke-width:0.5;"/><g data-visibility-modifier="PUBLIC_METHOD"><ellipse cx="178.5" cy="250.17" rx="3" ry="3" fill="#84BE84" style="stroke:#038048;stroke-width:1;"/></g><text x="187.5" y="254.102" fill="#F0F0F0" font-size="14" textLength="77">Adventure()</text><g data-visibility-modifier="PUBLIC_METHOD"><ellipse cx="178.5" cy="269.238" rx="3" ry="3" fill="#84BE84" style="stroke:#038048;stroke-width:1;"/></g><text x="187.5" y="273.17" fill="#F0F0F0" font-size="14" textLength="86.856">look() : String</text><g data-visibility-modifier="PUBLIC_METHOD"><ellipse cx="178.5" cy="288.306" rx="3" ry="3" fill="#84BE84" style="stroke:#038048;stroke-width:1;"/></g><text x="187.5" y="292.238" fill="#F0F0F0" font-size="14" textLength="169.791">getCurrentRoom() : String</text><g data-visibility-modifier="PUBLIC_METHOD"><ellipse cx="178.5" cy="307.374" rx="3" ry="3" fill="#84BE84" style="stroke:#038048;stroke-width:1;"/></g><text x="187.5" y="311.306" fill="#F0F0F0" font-size="14" textLength="133.335">moveNorth() : Room</text><g data-visibility-modifier="PUBLIC_METHOD"><ellipse cx="178.5" cy="326.441" rx="3" ry="3" fill="#84BE84" style="stroke:#038048;stroke-width:1;"/></g><text x="187.5" y="330.373" fill="#F0F0F0" font-size="14" textLength="122.136">moveEast() : Room</text><g data-visibility-modifier="PUBLIC_METHOD"><ellipse cx="178.5" cy="345.509" rx="3" ry="3" fill="#84BE84" style="stroke:#038048;stroke-width:1;"/></g><text x="187.5" y="349.441" fill="#F0F0F0" font-size="14" textLength="133.251">moveSouth() : Room</text><g data-visibility-modifier="PUBLIC_METHOD"><ellipse cx="178.5" cy="364.577" rx="3" ry="3" fill="#84BE84" style="stroke:#038048;stroke-width:1;"/></g><text x="187.5" y="368.509" fill="#F0F0F0" font-size="14" textLength="127.413">moveWest() : Room</text></g><!--class UserInterface--><g class="entity" data-qualified-name="UserInterface" id="ent0003" data-source-line="47"><rect x="55" y="52.068" width="195.035" height="67.068" fill="#2B2B2B" style="stroke:#8A8A8A;stroke-width:0.5;" rx="2.5" ry="2.5"/><ellipse cx="103.251" cy="68.068" rx="11" ry="11" fill="#ADD1B2" style="stroke:#181818;stroke-width:1;"/><path d="M102.72,74.99 Q100.97,74.99 99.829,74.255 Q98.704,73.505 98.141,72.162 Q97.595,70.802 97.595,69.005 Q97.595,66.974 98.251,65.521 Q98.907,64.068 100.188,63.287 Q101.47,62.505 103.345,62.505 Q104.235,62.505 104.907,62.693 Q105.579,62.865 106.266,63.209 L105.454,65.224 Q104.829,64.912 104.282,64.787 Q103.751,64.662 103.266,64.662 Q102.095,64.662 101.391,65.193 Q100.688,65.724 100.391,66.677 Q100.095,67.63 100.095,68.896 Q100.095,70.912 100.813,71.88 Q101.532,72.834 103.126,72.834 Q103.72,72.834 104.345,72.677 Q104.97,72.521 105.798,72.146 L105.798,74.365 Q105.063,74.677 104.266,74.834 Q103.485,74.99 102.72,74.99 Z " fill="#F0F0F0"/><text x="123.751" y="73.5" fill="#F0F0F0" font-size="14" textLength="90.034">UserInterface</text><line x1="56" y1="84.068" x2="249.035" y2="84.068" style="stroke:#8A8A8A;stroke-width:0.5;"/><line x1="56" y1="92.068" x2="249.035" y2="92.068" style="stroke:#8A8A8A;stroke-width:0.5;"/><g data-visibility-modifier="PUBLIC_METHOD"><ellipse cx="66" cy="107.102" rx="3" ry="3" fill="#84BE84" style="stroke:#038048;stroke-width:1;"/></g><text x="75" y="111.034" fill="#F0F0F0" font-size="14" textLength="169.035">main(args : String[]) : void</text></g><g class="link" data-entity-1="ent0002" data-entity-2="ent0001" id="lnk4" data-link-type="aggregation"><polygon points="232.512,377.262,226.83,381.702,228.742,388.654,234.425,384.215,232.512,377.262" fill="none" style="stroke:#E0E0E0;stroke-width:1;stroke-linejoin:miter;stroke-miterlimit:10;"/><path d="M228.742,388.654 C222.814,406.57 220.236,414.363 213.804,433.801" style="stroke:#E0E0E0;stroke-width:1;" fill="none"/><text x="227.5" y="410.965" fill="#F0F0F0" font-size="13" textLength="81.042">currentRoom</text><text x="191.804" y="429.698" fill="#F0F0F0" font-size="13" textLength="21.84">0..1</text><text x="224.512" y="392.159" fill="#F0F0F0" font-size="13">1</text></g><g class="link" data-entity-1="ent0001" data-entity-2="ent0001" id="lnk5" data-link-type="aggregation"><polygon points="299.008,589.974,302.093,596.492,309.296,596.151,306.211,589.633,299.008,589.974" fill="none" style="stroke:#E0E0E0;stroke-width:1;stroke-linejoin:miter;stroke-miterlimit:10;"/><path d="M309.296,596.151 C320.434,602.839 317,606.693 317,620.068 C317,633.443 310.146,643.474 299.008,650.162" style="stroke:#E0E0E0;stroke-width:1;" fill="none"/><text x="319" y="616.465" fill="#F0F0F0" font-size="13" textLength="79.352">north / east /</text><text x="321.216" y="634.171" fill="#F0F0F0" font-size="13" textLength="74.919">south / west</text><text x="300.008" y="665.059" fill="#F0F0F0" font-size="13" textLength="21.84">0..1</text><text x="300.008" y="585.871" fill="#F0F0F0" font-size="13" textLength="21.567">0..*</text></g><g class="link" data-entity-1="ent0003" data-entity-2="ent0002" id="lnk6" data-link-type="dependency"><polygon points="205.986,176.026,204.8,166.249,203.42,171.735,197.934,170.354,205.986,176.026" fill="#E0E0E0" style="stroke:#E0E0E0;stroke-width:1;stroke-linejoin:miter;stroke-miterlimit:10;"/><path d="M172.183,119.489 C181.731,135.459 191.198,151.293 203.42,171.735" style="stroke:#E0E0E0;stroke-width:1;stroke-dasharray:7,7;" fill="none"/><text x="193.5" y="152.965" fill="#F0F0F0" font-size="13" textLength="41.054">«uses»</text></g><g class="link" data-entity-1="ent0003" data-entity-2="ent0001" id="lnk7" data-link-type="dependency"><polygon points="112.233,433.906,114.942,424.437,111.538,428.955,107.02,425.55,112.233,433.906" fill="#E0E0E0" style="stroke:#E0E0E0;stroke-width:1;stroke-linejoin:miter;stroke-miterlimit:10;"/><path d="M134.277,119.483 C126.185,135.943 117.581,156.488 113.5,176.068 C96.054,259.776 100.306,349.017 111.538,428.955" style="stroke:#E0E0E0;stroke-width:1;stroke-dasharray:7,7;" fill="none"/><text x="115.5" y="281.965" fill="#F0F0F0" font-size="13" textLength="41.054">«uses»</text></g><?plantuml-src TLDDZzem4BtdLrZi9NINhvvMAuJ40YjnwQ6qwg7jmPiCsOZWGMC7L5Nzx_MOV3Z4P2xHUy_pySOskIb0BDCpA5CIY95O5L9hiSvbHl8eubJIOHX5-f2hasJaRoJizowJGqPOgdI51P9uc6qu7BSamai5RwOS3dQ9Ns_FVNxby0H8AL15FYyvMl8DbQcejob7IosDeVozDE1fLiyS0SqsGNKdpyu00Pe_fpk9lh5XuJxMi9TbOVhaloXAdAjV4Mi3HqB98uWNiRCzgQp2Kj09vIUJexgb59Bvi23dg22GsdGHZUMjw09TqQFxZJlLduA5XvK-0_E5YyV3RXwBRsm70NZ7RGJm7z2NwpgxFo1hpfYdhSPLyWRkAwv5VGVw6jU0vyYDWYUrlhWMFVCTiMuTylbcj-qRgXUSb4GMSallZDn8uzhY0l4GhBfgS_Jv8vuXk1acGgjXFBWR9hhBQURwhe6sohwAlKpgsUm1cQjOKgQRddx-RioqPrit1hE1mD583ARZiVsjtF2yYHp4zAUGydej9jVBFlcbhWkUk7iTTPiRZnVU6bx4V5vgq8j5G5ObRnJ_0G00?></g></svg>