<?xml version="1.0" encoding="UTF-8" standalone="no"?>
<!DOCTYPE svg PUBLIC "-//W3C//DTD SVG 1.1//EN"
 "http://www.w3.org/Graphics/SVG/1.1/DTD/svg11.dtd">
<!-- Generated by graphviz version 16.1.0 (0)
 -->
<!-- Title: Rooms Pages: 1 -->
<svg width="528pt" height="357pt"
 viewBox="0.00 0.00 528.00 357.00" xmlns="http://www.w3.org/2000/svg" xmlns:xlink="http://www.w3.org/1999/xlink">
<g id="graph0" class="graph" transform="scale(1 1) rotate(0) translate(4 352.5)">
<title>Rooms</title>
<polygon fill="white" stroke="none" points="-4,4 -4,-352.5 523.62,-352.5 523.62,4 -4,4"/>
<text xml:space="preserve" text-anchor="middle" x="259.81" y="-325.5" font-family="Helvetica,sans-Serif" font-size="20.00" fill="#000000">Adventure &#45; Room Layout (light)</text>
<text xml:space="preserve" text-anchor="middle" x="259.81" y="-297.75" font-family="Helvetica,sans-Serif" font-size="20.00" fill="#000000">Gold = starting room · Dashed red = locked door</text>
<!-- r1 -->
<g id="node1" class="node">
<title>r1</title>
<path fill="#ffe08a" stroke="#b8860b" d="M163.62,-275.12C163.62,-275.12 34.88,-275.12 34.88,-275.12 28.88,-275.12 22.88,-269.12 22.88,-263.12 22.88,-263.12 22.88,-235.88 22.88,-235.88 22.88,-229.88 28.88,-223.88 34.88,-223.88 34.88,-223.88 163.62,-223.88 163.62,-223.88 169.62,-223.88 175.62,-229.88 175.62,-235.88 175.62,-235.88 175.62,-263.12 175.62,-263.12 175.62,-269.12 169.62,-275.12 163.62,-275.12"/>
<text xml:space="preserve" text-anchor="start" x="74.12" y="-254.12" font-family="Helvetica,sans-Serif" font-size="14.00" fill="#000000">Room 1</text>
<text xml:space="preserve" text-anchor="start" x="32.88" y="-233.62" font-family="Helvetica,sans-Serif" font-size="11.00" fill="#000000">Backpack, Wooden sword</text>
</g>
<!-- r2 -->
<g id="node2" class="node">
<title>r2</title>
<path fill="#f1f1f1" stroke="#181818" d="M335.25,-285C335.25,-285 207.25,-285 207.25,-285 201.25,-285 195.25,-279 195.25,-273 195.25,-273 195.25,-226 195.25,-226 195.25,-220 201.25,-214 207.25,-214 207.25,-214 335.25,-214 335.25,-214 341.25,-214 347.25,-220 347.25,-226 347.25,-226 347.25,-273 347.25,-273 347.25,-279 341.25,-285 335.25,-285"/>
<text xml:space="preserve" text-anchor="start" x="246.12" y="-264" font-family="Helvetica,sans-Serif" font-size="14.00" fill="#000000">Room 2</text>
<text xml:space="preserve" text-anchor="start" x="205.25" y="-243.5" font-family="Helvetica,sans-Serif" font-size="11.00" fill="#000000">Key, Lamp, Canned beans</text>
<text xml:space="preserve" text-anchor="start" x="220.25" y="-223.75" font-family="Helvetica,sans-Serif" font-size="11.00" fill="#000000">Enemy: Cave Goblin</text>
</g>
<!-- r1&#45;&#45;r2 -->
<g id="edge1" class="edge">
<title>r1&#45;&#45;r2</title>
<path fill="none" stroke="#c62828" stroke-width="2.5" stroke-dasharray="5,2" d="M175.94,-250C182.21,-250 188.55,-250 194.82,-250"/>
</g>
<!-- r4 -->
<g id="node4" class="node">
<title>r4</title>
<path fill="#f1f1f1" stroke="#181818" d="M156.12,-178C156.12,-178 42.38,-178 42.38,-178 36.38,-178 30.38,-172 30.38,-166 30.38,-166 30.38,-119 30.38,-119 30.38,-113 36.38,-107 42.38,-107 42.38,-107 156.12,-107 156.12,-107 162.12,-107 168.12,-113 168.12,-119 168.12,-119 168.12,-166 168.12,-166 168.12,-172 162.12,-178 156.12,-178"/>
<text xml:space="preserve" text-anchor="start" x="74.12" y="-157" font-family="Helvetica,sans-Serif" font-size="14.00" fill="#000000">Room 4</text>
<text xml:space="preserve" text-anchor="start" x="53.5" y="-136.5" font-family="Helvetica,sans-Serif" font-size="11.00" fill="#000000">Torch, Mushroom</text>
<text xml:space="preserve" text-anchor="start" x="40.38" y="-116.75" font-family="Helvetica,sans-Serif" font-size="11.00" fill="#000000">Enemy: Stone scorpion</text>
</g>
<!-- r1&#45;&#45;r4 -->
<g id="edge4" class="edge">
<title>r1&#45;&#45;r4</title>
<path fill="none" stroke="#181818" stroke-width="1.5" d="M76.29,-223.6C76.29,-209.99 76.29,-193.1 76.29,-178.27"/>
</g>
<!-- r1&#45;&#45;r4 -->
<!-- r3 -->
<g id="node3" class="node">
<title>r3</title>
<path fill="#f1f1f1" stroke="#181818" d="M503.5,-275.12C503.5,-275.12 377,-275.12 377,-275.12 371,-275.12 365,-269.12 365,-263.12 365,-263.12 365,-235.88 365,-235.88 365,-229.88 371,-223.88 377,-223.88 377,-223.88 503.5,-223.88 503.5,-223.88 509.5,-223.88 515.5,-229.88 515.5,-235.88 515.5,-235.88 515.5,-263.12 515.5,-263.12 515.5,-269.12 509.5,-275.12 503.5,-275.12"/>
<text xml:space="preserve" text-anchor="start" x="415.12" y="-254.12" font-family="Helvetica,sans-Serif" font-size="14.00" fill="#000000">Room 3</text>
<text xml:space="preserve" text-anchor="start" x="375" y="-233.62" font-family="Helvetica,sans-Serif" font-size="11.00" fill="#000000">Rope, Slingshot, Trail mix</text>
</g>
<!-- r2&#45;&#45;r3 -->
<g id="edge2" class="edge">
<title>r2&#45;&#45;r3</title>
<path fill="none" stroke="#c62828" stroke-width="2.5" stroke-dasharray="5,2" d="M347.35,-250C353.13,-250 358.96,-250 364.74,-250"/>
</g>
<!-- r5 -->
<g id="node5" class="node">
<title>r5</title>
<path fill="#f1f1f1" stroke="#181818" d="M331.25,-168.12C331.25,-168.12 227.25,-168.12 227.25,-168.12 221.25,-168.12 215.25,-162.12 215.25,-156.12 215.25,-156.12 215.25,-128.88 215.25,-128.88 215.25,-122.88 221.25,-116.88 227.25,-116.88 227.25,-116.88 331.25,-116.88 331.25,-116.88 337.25,-116.88 343.25,-122.88 343.25,-128.88 343.25,-128.88 343.25,-156.12 343.25,-156.12 343.25,-162.12 337.25,-168.12 331.25,-168.12"/>
<text xml:space="preserve" text-anchor="start" x="254.12" y="-147.12" font-family="Helvetica,sans-Serif" font-size="14.00" fill="#000000">Room 5</text>
<text xml:space="preserve" text-anchor="start" x="225.25" y="-126.62" font-family="Helvetica,sans-Serif" font-size="11.00" fill="#000000">Enemy: Cursed Beast</text>
</g>
<!-- r2&#45;&#45;r5 -->
<!-- r6 -->
<g id="node6" class="node">
<title>r6</title>
<path fill="#f1f1f1" stroke="#181818" d="M507.62,-178C507.62,-178 372.88,-178 372.88,-178 366.88,-178 360.88,-172 360.88,-166 360.88,-166 360.88,-119 360.88,-119 360.88,-113 366.88,-107 372.88,-107 372.88,-107 507.62,-107 507.62,-107 513.62,-107 519.62,-113 519.62,-119 519.62,-119 519.62,-166 519.62,-166 519.62,-172 513.62,-178 507.62,-178"/>
<text xml:space="preserve" text-anchor="start" x="415.12" y="-157" font-family="Helvetica,sans-Serif" font-size="14.00" fill="#000000">Room 6</text>
<text xml:space="preserve" text-anchor="start" x="412.88" y="-136.5" font-family="Helvetica,sans-Serif" font-size="11.00" fill="#000000">Hook, Fish</text>
<text xml:space="preserve" text-anchor="start" x="370.88" y="-116.75" font-family="Helvetica,sans-Serif" font-size="11.00" fill="#000000">Enemy: Venomous Serpent</text>
</g>
<!-- r3&#45;&#45;r6 -->
<g id="edge3" class="edge">
<title>r3&#45;&#45;r6</title>
<path fill="none" stroke="#181818" stroke-width="1.5" d="M415.17,-223.6C415.17,-209.99 415.17,-193.1 415.17,-178.27"/>
</g>
<!-- r3&#45;&#45;r6 -->
<!-- r4&#45;&#45;r5 -->
<!-- r7 -->
<g id="node7" class="node">
<title>r7</title>
<path fill="#f1f1f1" stroke="#181818" d="M180.5,-71C180.5,-71 12,-71 12,-71 6,-71 0,-65 0,-59 0,-59 0,-12 0,-12 0,-6 6,0 12,0 12,0 180.5,0 180.5,0 186.5,0 192.5,-6 192.5,-12 192.5,-12 192.5,-59 192.5,-59 192.5,-65 186.5,-71 180.5,-71"/>
<text xml:space="preserve" text-anchor="start" x="71.12" y="-50" font-family="Helvetica,sans-Serif" font-size="14.00" fill="#000000">Room 7</text>
<text xml:space="preserve" text-anchor="start" x="38.5" y="-29.5" font-family="Helvetica,sans-Serif" font-size="11.00" fill="#000000">Dried meat, Bone club</text>
<text xml:space="preserve" text-anchor="start" x="10" y="-9.75" font-family="Helvetica,sans-Serif" font-size="11.00" fill="#000000">Enemy: Enraged Ranged Skeleton</text>
</g>
<!-- r4&#45;&#45;r7 -->
<g id="edge5" class="edge">
<title>r4&#45;&#45;r7</title>
<path fill="none" stroke="#181818" stroke-width="1.5" d="M76.29,-106.57C76.29,-95.16 76.29,-82.54 76.29,-71.15"/>
</g>
<!-- r4&#45;&#45;r7 -->
<!-- r5&#45;&#45;r6 -->
<!-- r8 -->
<g id="node8" class="node">
<title>r8</title>
<path fill="#f1f1f1" stroke="#181818" d="M339.62,-71C339.62,-71 222.88,-71 222.88,-71 216.88,-71 210.88,-65 210.88,-59 210.88,-59 210.88,-12 210.88,-12 210.88,-6 216.88,0 222.88,0 222.88,0 339.62,0 339.62,0 345.62,0 351.62,-6 351.62,-12 351.62,-12 351.62,-59 351.62,-59 351.62,-65 345.62,-71 339.62,-71"/>
<text xml:space="preserve" text-anchor="start" x="256.12" y="-50" font-family="Helvetica,sans-Serif" font-size="14.00" fill="#000000">Room 8</text>
<text xml:space="preserve" text-anchor="start" x="224.62" y="-29.5" font-family="Helvetica,sans-Serif" font-size="11.00" fill="#000000">Ancient Key, Stone fist</text>
<text xml:space="preserve" text-anchor="start" x="220.88" y="-9.75" font-family="Helvetica,sans-Serif" font-size="11.00" fill="#000000">Enemy: Stone Guardian</text>
</g>
<!-- r5&#45;&#45;r8 -->
<g id="edge8" class="edge">
<title>r5&#45;&#45;r8</title>
<path fill="none" stroke="#181818" stroke-width="1.5" d="M257.92,-116.6C257.92,-102.99 257.92,-86.1 257.92,-71.27"/>
</g>
<!-- r5&#45;&#45;r8 -->
<!-- r9 -->
<g id="node9" class="node">
<title>r9</title>
<path fill="#f1f1f1" stroke="#181818" d="M499,-61.12C499,-61.12 381.5,-61.12 381.5,-61.12 375.5,-61.12 369.5,-55.12 369.5,-49.12 369.5,-49.12 369.5,-21.88 369.5,-21.88 369.5,-15.88 375.5,-9.88 381.5,-9.88 381.5,-9.88 499,-9.88 499,-9.88 505,-9.88 511,-15.88 511,-21.88 511,-21.88 511,-49.12 511,-49.12 511,-55.12 505,-61.12 499,-61.12"/>
<text xml:space="preserve" text-anchor="start" x="415.12" y="-40.12" font-family="Helvetica,sans-Serif" font-size="14.00" fill="#000000">Room 9</text>
<text xml:space="preserve" text-anchor="start" x="379.5" y="-19.62" font-family="Helvetica,sans-Serif" font-size="11.00" fill="#000000">Steel sword, Energy bar</text>
</g>
<!-- r6&#45;&#45;r9 -->
<g id="edge9" class="edge">
<title>r6&#45;&#45;r9</title>
<path fill="none" stroke="#181818" stroke-width="1.5" d="M416.67,-106.57C416.67,-91.76 416.67,-74.92 416.67,-61.36"/>
</g>
<!-- r6&#45;&#45;r9 -->
<!-- r7&#45;&#45;r8 -->
<g id="edge6" class="edge">
<title>r7&#45;&#45;r8</title>
<path fill="none" stroke="#181818" stroke-width="1.5" d="M192.81,-36C198.77,-36 204.71,-36 210.52,-36"/>
</g>
<!-- r8&#45;&#45;r9 -->
<g id="edge7" class="edge">
<title>r8&#45;&#45;r9</title>
<path fill="none" stroke="#181818" stroke-width="1.5" d="M351.92,-36C357.72,-36 363.59,-36 369.4,-36"/>
</g>
</g>
</svg>
